<?xml version="1.0" encoding="UTF-8"?>
<svg xmlns="http://www.w3.org/2000/svg" viewBox="0 0 2822 1030" >
  <title>UniqueOne Wordmark</title>
  <g transform="translate(0.000000,1030.000000) scale(0.100000,-0.100000)" fill="#000000">
    <path d="M271 10146 c-14 -8 -28 -22 -32 -32 -13 -32 -10 -3176 2 -3279 76
-620 596 -1173 1262 -1341 210 -53 214 -54 1564 -54 1366 0 1322 -2 1476 58
174 68 331 226 387 391 20 61 20 63 18 2053 l-3 1993 -26 55 c-34 72 -84 129
-134 151 -37 17 -74 19 -445 18 -314 0 -413 -3 -443 -13 -66 -24 -106 -58
-135 -116 l-27 -55 -5 -1675 -5 -1675 -23 -37 c-27 -43 -125 -112 -185 -130
-61 -19 -1220 -18 -1364 0 -131 17 -255 52 -363 104 -113 54 -211 150 -263
258 -70 145 -67 62 -67 1737 0 1011 -4 1520 -10 1545 -6 21 -19 42 -30 48 -12
6 -217 10 -572 10 -446 -1 -558 -3 -577 -14z"/>
    <path d="M6150 10145 c-240 -49 -424 -185 -519 -385 l-36 -75 0 -2010 0 -2010
33 -67 c38 -77 94 -133 152 -148 28 -7 176 -10 458 -8 405 3 418 4 457 25 51
27 89 67 112 118 17 38 18 129 23 1715 l5 1675 23 36 c25 41 105 100 172 126
41 17 95 18 680 18 678 0 728 -3 910 -51 151 -40 252 -93 341 -183 82 -82 124
-156 156 -272 16 -59 18 -184 23 -1617 l5 -1554 24 -19 c23 -19 43 -19 598
-17 l575 3 19 24 c19 23 19 55 16 1685 -2 1542 -4 1666 -20 1726 -69 258 -171
457 -333 650 -155 186 -346 332 -589 451 -137 67 -258 108 -430 146 l-120 27
-1335 2 c-1079 2 -1347 0 -1400 -11z"/>
    <path d="M10965 10135 l-25 -24 0 -2311 0 -2311 25 -24 24 -25 520 0 520 0 20
26 21 27 0 2307 0 2307 -21 27 -20 26 -520 0 -520 0 -24 -25z"/>
    <path d="M13875 10144 c-329 -51 -627 -199 -824 -410 -156 -168 -299 -441
-346 -662 -33 -157 -37 -314 -32 -1242 4 -977 6 -1004 58 -1249 129 -603 511
-988 1079 -1088 98 -17 180 -18 1170 -18 976 0 1075 2 1190 18 69 10 143 21
165 23 l40 5 465 -479 c256 -264 470 -481 476 -481 22 -2 167 128 539 483 141
134 221 218 223 233 7 47 -98 168 -546 629 l-309 319 24 70 c57 166 93 369
113 624 6 78 10 533 10 1080 0 1008 -1 1035 -50 1211 -45 161 -157 352 -303
514 -180 200 -495 364 -802 416 -112 19 -159 20 -1183 19 -860 -1 -1084 -4
-1157 -15z m1826 -1100 c119 -20 242 -62 315 -105 87 -52 168 -131 195 -191
l24 -53 0 -841 0 -840 -37 -75 c-93 -186 -315 -316 -613 -359 -39 -5 -299 -10
-589 -10 -420 0 -539 3 -625 16 -259 38 -440 145 -529 311 -64 120 -63 108
-60 1006 l3 812 25 50 c66 136 254 256 445 285 28 4 343 8 701 9 556 1 664 -1
745 -15z"/>
    <path d="M18075 10141 c-70 -32 -131 -120 -154 -221 -7 -30 -11 -697 -11
-1995 0 -2152 -4 -2002 63 -2129 19 -38 64 -94 117 -146 68 -69 102 -94 170
-127 170 -83 53 -77 1445 -81 1337 -4 1366 -3 1575 48 139 35 219 64 348 129
446 224 752 592 879 1053 l28 103 3 1672 2 1671 -26 21 c-26 21 -34 21 -574
21 -524 0 -549 -1 -571 -19 l-24 -19 -5 -1564 c-5 -1453 -7 -1567 -23 -1623
-80 -272 -296 -429 -657 -477 -140 -18 -1290 -18 -1343 0 -60 22 -154 90 -179
130 l-23 37 -5 1675 -5 1675 -22 48 c-12 26 -37 61 -55 77 -61 57 -91 60 -522
60 -359 0 -394 -2 -431 -19z"/>
    <path d="M24490 10153 c-258 -28 -542 -130 -737 -265 -266 -184 -464 -487
-550 -843 -15 -63 -17 -172 -20 -1085 -4 -1106 -2 -1150 53 -1399 62 -283 161
-487 330 -686 116 -135 251 -228 486 -333 115 -52 118 -53 253 -62 74 -5 188
-17 251 -26 107 -15 243 -16 1786 -6 1053 7 1674 14 1680 20 6 6 14 44 19 86
12 113 22 968 11 984 -5 7 -27 18 -48 22 -22 6 -703 10 -1589 10 -1736 0
-1606 -5 -1770 75 -152 75 -241 172 -293 319 -22 63 -26 91 -30 259 l-5 187
1872 0 1872 0 -4 788 c-4 865 -3 852 -69 1049 -54 163 -172 345 -321 494 -185
186 -446 321 -752 390 l-100 23 -1145 2 c-630 0 -1161 -1 -1180 -3z m1840
-1117 c197 -37 332 -96 440 -193 67 -60 102 -129 108 -215 l5 -68 -274 0
c-151 0 -726 -5 -1278 -10 -552 -6 -1006 -8 -1009 -5 -14 14 19 178 45 226 78
144 283 256 508 278 50 5 376 8 725 7 560 -2 646 -4 730 -20z"/>
    <path d="M24434 4905 c-342 -51 -638 -190 -850 -400 -184 -183 -333 -465 -385
-730 -11 -57 -14 -268 -14 -1120 0 -1159 -2 -1120 65 -1395 69 -280 193 -505
379 -691 101 -100 227 -181 400 -258 l142 -63 128 -8 c70 -5 185 -16 255 -26
118 -16 246 -16 1792 -7 1147 7 1668 13 1676 21 19 19 27 156 34 607 l7 450
-23 20 c-22 20 -40 20 -1624 25 l-1601 5 -72 26 c-162 59 -277 146 -342 258
-63 105 -72 151 -78 364 l-6 187 1872 0 1872 0 -4 788 c-4 844 -4 843 -58
1017 -61 200 -223 438 -399 589 -173 149 -420 267 -687 328 l-98 22 -1145 2
c-913 2 -1163 -1 -1236 -11z m1896 -1109 c131 -25 261 -69 333 -113 143 -89
206 -176 215 -294 l4 -66 -758 -7 c-418 -3 -995 -9 -1283 -12 l-524 -7 6 71
c11 114 40 177 116 252 112 111 259 173 451 189 58 5 384 8 725 7 547 -2 631
-5 715 -20z"/>
    <path d="M14035 4903 c-414 -27 -769 -185 -1004 -449 -167 -188 -294 -452
-338 -704 -17 -97 -18 -181 -18 -1085 0 -1069 1 -1092 60 -1358 88 -391 271
-676 557 -867 158 -106 301 -164 503 -202 106 -20 147 -21 1040 -25 1158 -5
1329 3 1625 78 216 55 450 195 564 337 179 223 268 465 323 872 14 108 17 268
20 1149 5 1119 4 1142 -54 1325 -97 310 -359 613 -663 766 -177 89 -372 144
-574 160 -115 9 -1905 12 -2041 3z m1683 -1117 c243 -48 426 -157 492 -291
l25 -50 3 -819 c3 -881 4 -865 -48 -967 -66 -129 -253 -253 -466 -309 -143
-37 -238 -42 -784 -38 -558 5 -612 9 -756 58 -66 23 -170 78 -221 118 -52 40
-129 154 -155 230 l-23 67 0 835 0 835 28 57 c39 79 136 167 240 217 159 77
193 80 957 76 536 -2 637 -4 708 -19z"/>
    <path d="M18505 4904 c-183 -39 -281 -89 -396 -203 -95 -95 -151 -191 -169
-292 -7 -36 -9 -727 -8 -2010 3 -1812 4 -1957 20 -1996 26 -66 76 -137 116
-164 l36 -24 425 0 c422 0 426 0 468 22 23 13 54 38 68 57 58 76 55 -12 55
1765 0 1087 4 1648 10 1673 12 43 79 106 155 147 l50 26 640 0 c703 0 728 -2
900 -59 237 -80 367 -206 431 -421 17 -56 19 -157 24 -1616 5 -1513 6 -1557
24 -1578 19 -21 23 -21 571 -21 l552 0 21 23 22 24 -3 1654 c-3 1549 -4 1659
-21 1729 -98 411 -353 766 -721 1003 -176 113 -358 188 -580 238 l-100 23
-1285 2 c-707 1 -1294 0 -1305 -2z"/>
  </g>
</svg>
