<?xml version="1.0" encoding="UTF-8"?>
<svg xmlns="http://www.w3.org/2000/svg" viewBox="0 0 786 786" >
  <title>UniqueOne Icon (QU.ON)</title>
  <g transform="translate(0.000000,786.000000) scale(0.100000,-0.100000)" fill="#000000">
    <path d="M257 7602 l-87 -87 0 -3585 0 -3585 88 -88 87 -87 3580 0 3580 0 93
93 92 92 0 3580 0 3580 -87 87 -88 88 -3585 0 -3585 0 -88 -88z m2883 -550
c103 -32 242 -101 322 -162 130 -99 245 -271 290 -435 21 -77 22 -101 26 -655
5 -734 -9 -954 -71 -1138 l-22 -67 211 -220 c231 -240 297 -314 321 -360 l16
-30 -129 -124 c-187 -179 -345 -321 -359 -321 -6 0 -145 136 -307 303 l-296
303 -89 -15 c-72 -12 -217 -15 -783 -15 -635 -1 -702 1 -779 17 -117 25 -201
61 -303 129 -169 114 -281 283 -337 510 -44 180 -46 223 -46 898 0 592 2 651
18 724 33 139 109 290 199 398 110 132 319 241 538 281 14 3 358 4 765 3 739
-2 740 -2 815 -24z m1656 12 c18 -9 44 -33 56 -53 l23 -36 5 -1072 5 -1072 29
-30 c15 -16 51 -39 78 -51 50 -21 58 -22 467 -17 453 4 475 7 605 66 73 33
144 98 176 161 49 96 50 109 50 1135 0 734 3 964 12 973 9 9 104 12 364 12
310 0 355 -2 369 -16 14 -15 15 -115 13 -1078 l-3 -1061 -23 -73 c-72 -234
-220 -433 -422 -567 -164 -110 -309 -164 -493 -184 -124 -14 -1525 -14 -1622
-1 -139 20 -273 113 -338 234 l-22 41 -3 1280 -2 1279 26 54 c45 91 46 92 352
92 222 0 269 -3 298 -16z m-1688 -3332 c230 -61 411 -183 529 -357 79 -118
116 -215 133 -355 13 -109 13 -1119 0 -1305 -43 -603 -259 -858 -775 -915 -67
-8 -329 -10 -790 -8 -664 4 -693 5 -762 25 -292 84 -493 286 -578 580 -57 196
-60 231 -60 943 0 641 0 657 22 740 95 375 371 618 758 669 39 5 378 8 755 7
669 -2 687 -3 768 -24z m3063 13 c208 -39 392 -131 557 -280 119 -108 240
-309 284 -475 l23 -85 0 -1047 c0 -845 -3 -1049 -13 -1060 -20 -20 -689 -24
-717 -4 -20 14 -20 30 -25 1013 l-5 998 -23 57 c-33 82 -99 150 -185 193 -131
65 -172 69 -632 70 -401 0 -411 0 -450 -22 -52 -28 -83 -62 -95 -104 -6 -21
-10 -426 -10 -1069 0 -991 -1 -1037 -19 -1070 -10 -19 -34 -44 -52 -55 -32
-19 -52 -20 -301 -20 -305 0 -301 -1 -348 91 l-25 48 0 1271 0 1270 28 56 c51
105 158 191 278 223 83 23 1610 23 1730 1z"/>
    <path d="M1812 6380 c-122 -17 -241 -91 -284 -177 l-23 -48 0 -525 0 -525 26
-56 c58 -124 164 -196 329 -225 75 -12 158 -15 458 -12 l367 4 81 27 c95 31
187 89 232 142 62 76 62 76 62 644 0 477 -2 519 -19 556 -34 75 -131 142 -257
177 -75 20 -102 22 -494 24 -228 1 -443 -2 -478 -6z"/>
    <path d="M1787 3049 c-112 -22 -217 -92 -260 -173 -22 -41 -22 -46 -22 -561 0
-476 2 -524 18 -572 25 -71 68 -127 129 -168 127 -83 238 -98 683 -93 305 5
336 7 405 27 142 42 244 114 293 205 22 40 22 49 25 561 2 378 0 532 -9 563
-14 50 -92 127 -164 161 -114 53 -128 55 -605 57 -251 1 -466 -2 -493 -7z"/>
  </g>
</svg>
